<svg width="24" height="24" viewBox="0 0 24 24" fill="none" xmlns="http://www.w3.org/2000/svg">
<g clip-path="url(#clip0_15_57)">
<path d="M12.65 15.4523C12.79 15.0973 12.7 14.693 12.42 14.4169L10.33 12.3855L10.36 12.3559C12.1 10.4429 13.34 8.24383 14.07 5.91661H16.01C16.55 5.91661 17 5.47286 17 4.94036V4.92064C17 4.38814 16.55 3.94439 16.01 3.94439H10V2.95828C10 2.41592 9.55 1.97217 9 1.97217C8.45 1.97217 8 2.41592 8 2.95828V3.94439H1.99C1.45 3.94439 1 4.38814 1 4.92064C1 5.463 1.45 5.89689 1.99 5.89689H12.17C11.5 7.80995 10.44 9.61453 9 11.1923C8.19 10.3147 7.51 9.35814 6.94 8.35231C6.78 8.06634 6.49 7.88883 6.16 7.88883C5.47 7.88883 5.03 8.62842 5.37 9.22009C6 10.3344 6.77 11.3994 7.67 12.3855L3.3 16.6356C2.9 17.0202 2.9 17.6513 3.3 18.0359C3.69 18.4205 4.32 18.4205 4.72 18.0359L9 13.8055L11.02 15.7974C11.53 16.3004 12.4 16.113 12.65 15.4523ZM17.5 9.86106C16.9 9.86106 16.36 10.2259 16.15 10.788L12.48 20.4519C12.24 21.0534 12.7 21.6944 13.35 21.6944C13.74 21.6944 14.09 21.4577 14.23 21.0929L15.12 18.7361H19.87L20.77 21.0929C20.91 21.4479 21.26 21.6944 21.65 21.6944C22.3 21.6944 22.76 21.0534 22.53 20.4519L18.86 10.788C18.64 10.2259 18.1 9.86106 17.5 9.86106ZM15.88 16.7638L17.5 12.494L19.12 16.7638H15.88Z" fill="url(#paint0_linear_15_57)"/>
</g>
<defs>
<linearGradient id="paint0_linear_15_57" x1="11.795" y1="1.97217" x2="11.795" y2="21.6944" gradientUnits="userSpaceOnUse">
<stop stop-color="#FF9900"/>
<stop offset="1" stop-color="#FFAA29"/>
</linearGradient>
<clipPath id="clip0_15_57">
<rect width="24" height="23.6667" fill="white"/>
</clipPath>
</defs>
</svg>
